# xmcd
# 
# Track frame offsets:
#     150
#     16841
#     28851
#     43297
#     68268
#     84550
#     106004
#     119560
#     138214
#     158244
#     178373
# 
# Disc length: 2900
# 
# Revision: 1
# Processed by: cddbd v1.5.2PL0 Copyright (c) Steve Scherf et al.
# Submitted via: fre:ac v1.0.17
# 
DISCID=8c0b520b
DTITLE=Baum - 2013
DYEAR=2013
DGENRE=Singer/Songwriter
TTITLE0=Damn
TTITLE1=Crow
TTITLE2=Sleep Now
TTITLE3=All the Holes in You
TTITLE4=Paris
TTITLE5=I Cannot Sleep
TTITLE6=Sad
TTITLE7=I Shall Be Released
TTITLE8=Go Sleep in Blood
TTITLE9=She Smiles
TTITLE10=Center of Town
EXTD=
EXTT0=
EXTT1=
EXTT2=
EXTT3=
EXTT4=
EXTT5=
EXTT6=
EXTT7=
EXTT8=
EXTT9=
EXTT10=
PLAYORDER=
